<?xml version="1.0" encoding="utf-8"?>
<!-- Generator: Adobe Illustrator 16.0.0, SVG Export Plug-In . SVG Version: 6.00 Build 0)  -->
<!DOCTYPE svg PUBLIC "-//W3C//DTD SVG 1.1//EN" "http://www.w3.org/Graphics/SVG/1.1/DTD/svg11.dtd">
<svg version="1.1" id="Capa_1" xmlns="http://www.w3.org/2000/svg" xmlns:xlink="http://www.w3.org/1999/xlink" x="0px" y="0px"
	 width="87px" height="100px" viewBox="0 0 87 100" enable-background="new 0 0 87 100" xml:space="preserve">
<g>
	<polygon fill="#90CAF9" points="51.336,5.299 43.976,1.162 36.798,5.303 2.111,25.5 2.111,25.5 13.985,32.547 14.206,32.502 
		36.895,19.304 43.905,15.166 51.192,19.39 73.756,32.502 73.756,32.502 86,25.5 86,25.352 	"/>
	<polygon fill="#2196F3" points="73.486,67.117 62.995,61.022 43.671,72.122 24.367,60.661 24.367,60.661 14,66.703 14,32.502 
		2,25.45 2,74.027 44,98.393 86,74.027 86,25.45 73.667,32.502 73.486,67.117 	"/>
</g>
<g>
	<polygon fill="#0D47A1" points="44.084,72.125 25.208,60.661 25.208,60.661 13.68,66.703 13.68,66.703 43.74,84.287 73.625,67.083 
		62.995,61.022 	"/>
	<polygon fill="#1976D2" points="63,61.022 63,41.188 63,38.444 44,27.224 25,38.444 25,40.634 25.084,60.75 13.75,66.708 
		14,34.594 14,32.502 44,15.042 74,32.502 74,34.98 73.727,67.117 	"/>
</g>
<polygon fill="#1565C0" points="43.922,84.279 31.754,91.391 43.851,98.393 55.772,91.508 "/>
<polygon fill="#1A237E" points="25,38.444 44,27.224 63,38.444 63,61.022 44.069,72.122 25,60.661 "/>
</svg>
