<?xml version="1.0" encoding="utf-8"?>
<!-- Generator: Adobe Illustrator 16.0.0, SVG Export Plug-In . SVG Version: 6.00 Build 0)  -->
<!DOCTYPE svg PUBLIC "-//W3C//DTD SVG 1.1//EN" "http://www.w3.org/Graphics/SVG/1.1/DTD/svg11.dtd">
<svg version="1.1" id="Capa_1" xmlns="http://www.w3.org/2000/svg" xmlns:xlink="http://www.w3.org/1999/xlink" x="0px" y="0px"
	 width="87px" height="100px" viewBox="0 0 87 100" enable-background="new 0 0 87 100" xml:space="preserve">
<g>
	<polygon fill="#FFE0B2" points="50.564,4.847 43.322,0.709 36.202,4.852 1.031,25.031 1.031,25.031 13.006,32.092 13.234,32.047 
		36.354,18.854 43.367,14.716 50.656,18.941 72.988,32.055 72.988,32.055 85,25.052 85,24.903 	"/>
	<polygon fill="#FFB74D" points="72.955,66.677 62.463,60.581 43.135,71.684 24.688,60.375 24.688,60.375 13.156,66.25 13,32.055 
		1,25.001 1,73.588 43,97.958 85,73.588 85,25.001 72.898,32.055 	"/>
</g>
<g>
	<polygon fill="#EF6C00" points="43.548,71.686 24.669,60.221 24.669,60.221 13.138,66.264 13.138,66.264 43.205,83.85 
		73.096,66.643 62.463,60.581 	"/>
	<polygon fill="#FFA726" points="62,60.581 62,40.742 62,37.998 43.5,26.776 25,37.998 25,40.189 24.814,60.309 13.114,66.268 
		13,34.147 13,32.055 43.5,14.591 73.016,32.005 73.016,34.484 73.172,66.688 	"/>
</g>
<polygon fill="#EF6C00" points="43.385,83.842 31.216,90.954 43.314,97.958 55.238,91.072 "/>
<polygon fill="#E65100" points="24.726,37.832 43.5,26.443 62.274,37.832 62.274,60.749 43.568,72.017 24.726,60.384 "/>
</svg>
